<?xml version="1.0" encoding="UTF-8" standalone="no"?>
<svg
   xmlns:dc="http://purl.org/dc/elements/1.1/"
   xmlns:cc="http://creativecommons.org/ns#"
   xmlns:rdf="http://www.w3.org/1999/02/22-rdf-syntax-ns#"
   xmlns:svg="http://www.w3.org/2000/svg"
   xmlns="http://www.w3.org/2000/svg"
   xmlns:sodipodi="http://sodipodi.sourceforge.net/DTD/sodipodi-0.dtd"
   xmlns:inkscape="http://www.inkscape.org/namespaces/inkscape"
   x="0px"
   y="0px"
   viewBox="0 0 50 50"
   enable-background="new 0 0 500 500"
   version="1.1"
   id="svg28"
   sodipodi:docname="khadas-logo.svg"
   width="50"
   height="50"
   inkscape:version="0.92.5 (2060ec1f9f, 2020-04-08)"
   inkscape:export-filename="khadas-logo.png"
   inkscape:export-xdpi="96"
   inkscape:export-ydpi="96">
  <metadata
     id="metadata34">
    <rdf:RDF>
      <cc:Work
         rdf:about="">
        <dc:format>image/svg+xml</dc:format>
        <dc:type
           rdf:resource="http://purl.org/dc/dcmitype/StillImage" />
        <dc:title></dc:title>
      </cc:Work>
    </rdf:RDF>
  </metadata>
  <defs
     id="defs32">
    <filter
       inkscape:label="Black Light"
       inkscape:menu="Color"
       inkscape:menu-tooltip="Light areas turn to black"
       style="color-interpolation-filters:sRGB"
       id="filter881">
      <feColorMatrix
         type="luminanceToAlpha"
         result="result2"
         id="feColorMatrix873" />
      <feComposite
         in2="SourceGraphic"
         operator="arithmetic"
         in="result2"
         k3="2"
         result="result4"
         id="feComposite875"
         k1="0"
         k2="0"
         k4="0" />
      <feBlend
         in="result4"
         mode="multiply"
         result="result3"
         in2="result2"
         id="feBlend877" />
      <feComposite
         in2="SourceGraphic"
         operator="in"
         in="result3"
         id="feComposite879" />
    </filter>
    <filter
       style="color-interpolation-filters:sRGB"
       height="1"
       width="1"
       y="0"
       x="0"
       inkscape:label="Color Blindness"
       id="filter969">
      <feColorMatrix
         values="0.566 0.43333 0 0 0 0.55833 0.4416 0 0 0 0 0.24167 0.75833 0 0 0 0 0 1 0 "
         type="matrix"
         result="colormatrix1"
         id="feColorMatrix967" />
    </filter>
    <filter
       inkscape:label="Black Light"
       inkscape:menu="Color"
       inkscape:menu-tooltip="Light areas turn to black"
       style="color-interpolation-filters:sRGB"
       id="filter881-7">
      <feColorMatrix
         type="luminanceToAlpha"
         result="result2"
         id="feColorMatrix873-9" />
      <feComposite
         k4="0"
         k2="0"
         k1="0"
         in2="SourceGraphic"
         operator="arithmetic"
         in="result2"
         k3="2"
         result="result4"
         id="feComposite875-3" />
      <feBlend
         in="result4"
         mode="multiply"
         result="result3"
         in2="result2"
         id="feBlend877-9" />
      <feComposite
         in2="SourceGraphic"
         operator="in"
         in="result3"
         id="feComposite879-2" />
    </filter>
    <filter
       inkscape:label="Black Light"
       inkscape:menu="Color"
       inkscape:menu-tooltip="Light areas turn to black"
       style="color-interpolation-filters:sRGB"
       id="filter1002">
      <feColorMatrix
         type="luminanceToAlpha"
         result="result2"
         id="feColorMatrix994" />
      <feComposite
         k4="0"
         k2="0"
         k1="0"
         in2="SourceGraphic"
         operator="arithmetic"
         in="result2"
         k3="2"
         result="result4"
         id="feComposite996" />
      <feBlend
         in="result4"
         mode="multiply"
         result="result3"
         in2="result2"
         id="feBlend998" />
      <feComposite
         in2="SourceGraphic"
         operator="in"
         in="result3"
         id="feComposite1000" />
    </filter>
    <filter
       style="color-interpolation-filters:sRGB"
       height="1"
       width="1"
       y="0"
       x="0"
       inkscape:label="Color Blindness"
       id="filter969-8">
      <feColorMatrix
         values="0.566 0.43333 0 0 0 0.55833 0.4416 0 0 0 0 0.24167 0.75833 0 0 0 0 0 1 0 "
         type="matrix"
         result="colormatrix1"
         id="feColorMatrix967-3" />
    </filter>
    <filter
       inkscape:label="Black Light"
       inkscape:menu="Color"
       inkscape:menu-tooltip="Light areas turn to black"
       style="color-interpolation-filters:sRGB"
       id="filter1014">
      <feColorMatrix
         type="luminanceToAlpha"
         result="result2"
         id="feColorMatrix1006" />
      <feComposite
         k4="0"
         k2="0"
         k1="0"
         in2="SourceGraphic"
         operator="arithmetic"
         in="result2"
         k3="2"
         result="result4"
         id="feComposite1008" />
      <feBlend
         in="result4"
         mode="multiply"
         result="result3"
         in2="result2"
         id="feBlend1010" />
      <feComposite
         in2="SourceGraphic"
         operator="in"
         in="result3"
         id="feComposite1012" />
    </filter>
    <filter
       style="color-interpolation-filters:sRGB"
       height="1"
       width="1"
       y="0"
       x="0"
       inkscape:label="Color Blindness"
       id="filter1081">
      <feColorMatrix
         values="0.299 0.587 0.114 0 0 0.299 0.587 0.114 0 0 0.299 0.587 0.114 0 0 0 0 0 1 0 "
         type="matrix"
         result="colormatrix1"
         id="feColorMatrix1079" />
    </filter>
  </defs>
  <sodipodi:namedview
     pagecolor="#ffffff"
     bordercolor="#666666"
     borderopacity="1"
     objecttolerance="10"
     gridtolerance="10"
     guidetolerance="10"
     inkscape:pageopacity="0"
     inkscape:pageshadow="2"
     inkscape:window-width="1862"
     inkscape:window-height="1009"
     id="namedview30"
     showgrid="false"
     inkscape:zoom="2.6700352"
     inkscape:cx="56.316969"
     inkscape:cy="37.710964"
     inkscape:window-x="58"
     inkscape:window-y="34"
     inkscape:window-maximized="1"
     inkscape:current-layer="layer2" />
  <g
     inkscape:groupmode="layer"
     id="layer1"
     inkscape:label="bg"
     style="display:inline"
     transform="translate(0,-310)" />
  <g
     inkscape:groupmode="layer"
     id="layer2"
     inkscape:label="logo"
     transform="translate(0,-310)">
    <g
       transform="matrix(0.33149752,0,0,0.32127004,-33.79999,284.55255)"
       id="g865">
      <g
         transform="translate(-74.90538,-55.356922)"
         id="g26">
        <path
           style="fill:#1e95d4"
           inkscape:connector-curvature="0"
           id="path14"
           d="M 316.3,286.7 H 188.5 c -5.7,0 -10.3,-4.6 -10.3,-10.3 V 148.6 c 0,-5.7 4.6,-10.3 10.3,-10.3 h 127.8 c 5.7,0 10.3,4.6 10.3,10.3 v 127.8 c -0.1,5.7 -4.7,10.3 -10.3,10.3 z M 188.5,139.8 c -4.9,0 -8.8,4 -8.8,8.8 v 127.8 c 0,4.9 4,8.8 8.8,8.8 h 127.8 c 4.9,0 8.8,-4 8.8,-8.8 V 148.6 c 0,-4.9 -4,-8.8 -8.8,-8.8 H 188.5 Z" />
        <path
           style="fill:#1e95d4"
           inkscape:connector-curvature="0"
           id="path16"
           d="m 191.3,273.7 c -1.2,-1.2 -1.2,-3 0,-4.2 L 309.4,151.4 c 1.2,-1.2 3,-1.2 4.2,0 1.2,1.2 1.2,3 0,4.2 L 195.4,273.7 c -1.1,1.2 -3,1.2 -4.1,0 z" />
        <path
           style="fill:#c9caca"
           inkscape:connector-curvature="0"
           id="path18"
           d="m 202.9,229.2 c -1.7,0 -3.5,-0.4 -5.2,-1.1 -4.6,-2 -7.4,-6.7 -7.4,-11.7 v -62.9 c 0,-1.6 1.3,-3 3,-3 1.6,0 3,1.3 3,3 v 63.2 c 0,3.2 2.1,5.3 4.1,6.1 2,0.8 4.9,0.9 7.2,-1.4 l 70,-70 c 1.2,-1.2 3,-1.2 4.2,0 1.2,1.2 1.2,3 0,4.2 l -70,70 c -2.6,2.3 -5.7,3.6 -8.9,3.6 z" />
        <path
           style="fill:#f8b62d"
           inkscape:connector-curvature="0"
           id="path20"
           d="m 309.4,273.7 -44.1,-44.2 c -1.2,-1.2 -1.2,-3 0,-4.2 1.2,-1.2 3,-1.2 4.2,0 l 44.1,44.2 c 1.2,1.2 1.2,3 0,4.2 -1.2,1.2 -3.1,1.2 -4.2,0 z" />
        <path
           style="fill:#8fc31f"
           inkscape:connector-curvature="0"
           id="path22"
           d="M 276.6,273.7 248.9,246 c -1.2,-1.2 -1.2,-3 0,-4.2 1.2,-1.2 3,-1.2 4.2,0 l 27.7,27.7 c 1.2,1.2 1.2,3 0,4.2 -1.2,1.2 -3,1.2 -4.2,0 z" />
        <path
           style="fill:#e60012"
           inkscape:connector-curvature="0"
           id="path24"
           d="m 215.9,192.2 c -1.6,0 -3,-1.3 -3,-3 v -35.8 c 0,-1.6 1.3,-3 3,-3 1.6,0 3,1.3 3,3 v 35.8 c -0.1,1.7 -1.4,3 -3,3 z" />
      </g>
    </g>
  </g>
</svg>
