<?xml version="1.0" encoding="UTF-8" standalone="no"?>
<!-- Generator: Adobe Illustrator 16.0.0, SVG Export Plug-In . SVG Version: 6.00 Build 0)  -->

<svg
   xmlns:dc="http://purl.org/dc/elements/1.1/"
   xmlns:cc="http://creativecommons.org/ns#"
   xmlns:rdf="http://www.w3.org/1999/02/22-rdf-syntax-ns#"
   xmlns:svg="http://www.w3.org/2000/svg"
   xmlns="http://www.w3.org/2000/svg"
   xmlns:sodipodi="http://sodipodi.sourceforge.net/DTD/sodipodi-0.dtd"
   xmlns:inkscape="http://www.inkscape.org/namespaces/inkscape"
   version="1.1"
   id="Capa_1"
   x="0px"
   y="0px"
   width="528.19159"
   height="348.03598"
   viewBox="0 0 528.1916 348.03599"
   xml:space="preserve"
   sodipodi:docname="nintendo-game-control-svgrepo-com.svg"
   inkscape:export-filename="/home/master/khadas/new.works/lutor-khadas/assets/nintendo-game-control-svgrepo-com.png"
   inkscape:export-xdpi="88.266739"
   inkscape:export-ydpi="88.266739"
   inkscape:version="0.92.5 (2060ec1f9f, 2020-04-08)"><metadata
   id="metadata77"><rdf:RDF><cc:Work
       rdf:about=""><dc:format>image/svg+xml</dc:format><dc:type
         rdf:resource="http://purl.org/dc/dcmitype/StillImage" /><dc:title /></cc:Work></rdf:RDF></metadata><defs
   id="defs75">
		
		
		
		
		
		
		
		
		
		
		
		
		
		
		
		
		
		
	</defs><sodipodi:namedview
   pagecolor="#ffffff"
   bordercolor="#666666"
   borderopacity="1"
   objecttolerance="10"
   gridtolerance="10"
   guidetolerance="10"
   inkscape:pageopacity="0"
   inkscape:pageshadow="2"
   inkscape:window-width="1862"
   inkscape:window-height="1009"
   id="namedview73"
   showgrid="false"
   inkscape:zoom="1.5861015"
   inkscape:cx="-139.18472"
   inkscape:cy="167.08789"
   inkscape:window-x="58"
   inkscape:window-y="34"
   inkscape:window-maximized="1"
   inkscape:current-layer="g40"
   fit-margin-top="0"
   fit-margin-left="0"
   fit-margin-right="0"
   fit-margin-bottom="0"
   showguides="false" />
<rect
   style="opacity:0.414;fill:#ffffff;fill-opacity:0.99624059;stroke:none;stroke-width:0.88982463;stroke-opacity:0.75686275"
   id="rect831"
   width="390.53333"
   height="138.64825"
   x="71.107391"
   y="172.39128" /><g
   id="g40"
   style="opacity:1"
   transform="translate(-32.784787,-217.50827)">
	<path
   style="fill:#333333;stroke-width:0.66813564"
   inkscape:connector-curvature="0"
   id="path2"
   d="m 279.45213,270.37006 c -4.82075,0.10763 -9.72709,4.09262 -8.1129,10.14992 8.81606,33.10479 -20.63293,43.73658 -41.30304,61.00522 -11.98101,10.00934 -16.33539,24.44298 -12.71676,38.50523 H 108.55686 c -4.51794,0 -8.17814,3.66022 -8.17814,8.17815 v 136.00344 c 0,4.5186 3.6602,8.17813 8.17814,8.17813 h 381.29796 c 4.51861,0 8.17814,-3.6602 8.17814,-8.17813 V 388.20858 c 0,-4.51862 -3.66021,-8.17815 -8.17814,-8.17815 H 234.3047 c -0.12629,-0.48239 -0.26889,-0.96402 -0.48937,-1.4511 -10.68015,-23.68741 31.15366,-39.65127 43.82552,-53.16899 12.3859,-13.21171 13.89444,-32.61798 9.47004,-49.23585 -1.10146,-4.13632 -4.36036,-5.87807 -7.65876,-5.80443 z M 111.66786,396.36191 h 375.32912 c 3.21773,0 5.83052,2.6168 5.83052,5.83052 v 120.40144 c 0,3.21374 -2.61679,5.83052 -5.83052,5.83054 H 341.12939 v 0.25315 H 239.36006 v -0.25315 h -127.6922 c -3.21439,0 -5.83052,-2.6168 -5.83052,-5.83054 V 402.19243 c 0,-3.21372 2.61613,-5.83052 5.83052,-5.83052 z m 0,4.09233 c -0.96078,0 -1.7421,0.782 -1.7421,1.74212 v 120.39621 c 0,0.95677 0.78132,1.74081 1.7421,1.74081 h 127.69483 v -6.78706 c 0,-3.21374 2.61742,-5.83053 5.83182,-5.83053 h 90.10827 c 3.21441,0 5.83184,2.61679 5.83184,5.83053 v 6.78706 h 145.86627 c 0.96078,0 1.74213,-0.7807 1.74211,-1.74081 V 402.19243 c -0.004,-0.95676 -0.78525,-1.73819 -1.74602,-1.73819 H 341.12939 v 12.59541 c 0,3.21439 -2.61612,5.83053 -5.83052,5.83053 H 245.1906 c -3.21373,0 -5.83054,-2.61614 -5.83054,-5.83053 v -12.59541 z m 131.78062,0.24534 v 12.34615 c 0,0.96011 0.78134,1.74081 1.74212,1.74081 h 90.10957 c 0.96077,0 1.74081,-0.7807 1.74081,-1.74081 v -12.34615 z m 1.74212,20.14193 h 90.10957 c 3.2144,0 5.83053,2.61744 5.83053,5.83184 v 10.60273 h -0.002 c 0,3.21442 -2.61613,5.83054 -5.83052,5.83054 h -90.10801 c -3.21373,0 -5.83053,-2.61612 -5.83053,-5.83054 v -10.60273 c 0,-3.2144 2.6168,-5.83184 5.83053,-5.83184 z m 0,4.09495 c -0.96078,0 -1.74212,0.78069 -1.74212,1.74081 V 437.28 c 0,0.95743 0.78134,1.74212 1.74212,1.74212 h 90.10957 c 0.96077,0 1.74081,-0.78134 1.74081,-1.74212 v -10.60273 c 0,-0.96012 -0.78133,-1.74081 -1.74211,-1.74081 z m -86.83415,0.22053 h 32.82217 c 2.42066,0 4.38725,1.96659 4.38725,4.38725 v 21.00974 h 21.00844 c 2.42065,0 4.38855,1.96659 4.38855,4.38725 v 32.82216 h 0.004 c 0,2.42065 -1.96659,4.38725 -4.38726,4.38725 h -21.00842 v 21.01234 c 0,2.42065 -1.9679,4.38856 -4.38856,4.38856 H 158.3607 c -2.42066,0 -4.38724,-1.96791 -4.38724,-4.38856 v -21.01234 h -21.0139 c -2.42066,0 -4.38725,-1.9666 -4.38725,-4.38725 v -32.82216 c 0,-2.42066 1.96659,-4.38725 4.38725,-4.38725 h 21.00843 v -21.00974 c 0,-2.42066 1.96791,-4.38725 4.38855,-4.38725 z m 0.004,4.08973 c -0.16771,0 -0.29753,0.1345 -0.29753,0.29752 v 25.09816 h -25.10337 c -0.1677,0 -0.29884,0.13514 -0.29884,0.29883 v 32.82216 c 0,0.16369 0.13515,0.29753 0.29884,0.29753 h 25.09815 v 25.10206 c 0,0.1637 0.13514,0.29884 0.29883,0.29884 h 32.82217 c 0.16703,0 0.29884,-0.13514 0.29884,-0.29884 v -25.10206 h 25.09685 c 0.16769,0 0.29883,-0.13384 0.29883,-0.29753 v -32.82216 c 0,-0.16369 -0.13515,-0.29883 -0.29883,-0.29883 h -25.09294 v -25.09816 c 0,-0.16302 -0.13515,-0.29752 -0.29884,-0.29752 z m 5.99495,3.33024 h 20.82444 c 2.37989,0 4.31808,1.93818 4.31808,4.31809 v 19.72564 h 19.72435 c 2.3799,0 4.3181,1.93754 4.3181,4.3181 v 20.82574 h -0.003 c 0,2.37989 -1.93886,4.31809 -4.31809,4.31809 h -19.72019 v 19.72173 c 0,2.37991 -1.93886,4.3181 -4.31809,4.3181 h -20.8257 c -2.3799,0 -4.31939,-1.93819 -4.31939,-4.3181 V 486.08262 H 140.3117 c -2.3799,0 -4.31809,-1.9382 -4.31809,-4.31809 v -20.82574 c 0,-2.3799 1.93819,-4.3181 4.31809,-4.3181 h 19.72436 v -19.72564 c 0,-2.37991 1.93949,-4.31809 4.31939,-4.31809 z m 0.004,4.09363 -0.22837,24.04375 h -23.81538 l -0.22837,21.05019 24.03853,0.22835 v 23.81147 l 21.05019,0.22837 c 0.12695,0 0.22968,-0.0974 0.22968,-0.22837 v -23.81147 h 23.81406 l 0.22838,-21.05018 -24.03854,-0.22836 v -23.81538 z m 80.83136,8.4026 h 90.10957 c 3.21441,0 5.83054,2.61742 5.83054,5.83182 v 10.60273 h -0.002 c 0,3.21441 -2.61613,5.83054 -5.83052,5.83054 h -90.10802 c -3.21373,0 -5.83053,-2.61613 -5.83053,-5.83054 v -10.60273 c 0,-3.2144 2.6168,-5.83182 5.83053,-5.83182 z m 0,4.09362 c -0.96078,0 -1.74211,0.78134 -1.74211,1.74212 v 10.60273 c 0,0.95678 0.78133,1.74081 1.74211,1.74081 h 90.10957 c 0.96078,0 1.74082,-0.78003 1.74082,-1.74081 v -10.60273 c 0,-0.96078 -0.78134,-1.74212 -1.74211,-1.74212 z m 116.10162,17.48766 h 34.83439 c 3.2144,0 5.83055,2.61811 5.83055,5.83184 v 34.8344 c 0,3.21441 -2.61615,5.83053 -5.83055,5.83053 h -34.83439 c -3.2144,0 -5.83053,-2.61612 -5.83053,-5.83053 v -34.8344 c 0,-3.21373 2.6168,-5.83184 5.83053,-5.83184 z m 54.52352,0 h 34.8344 c 3.2144,0 5.83053,2.61811 5.83053,5.83184 v 34.8344 c 0,3.21441 -2.61613,5.83053 -5.83053,5.83053 h -34.83435 c -3.21439,0 -5.83182,-2.61612 -5.83182,-5.83053 v -34.8344 c 0,-3.21373 2.61743,-5.83184 5.83182,-5.83184 z m -170.62514,3.41115 h 90.10957 c 3.21441,0 5.83054,2.61744 5.83054,5.83183 v 28.77421 h -0.002 c 0,3.21441 -2.61613,5.83053 -5.83052,5.83053 h -90.10802 c -3.21373,0 -5.83053,-2.61612 -5.83053,-5.83053 v -28.77421 c 0,-3.21439 2.6168,-5.83183 5.83053,-5.83183 z m 116.10684,0.6825 c -0.96078,0 -1.7421,0.78133 -1.7421,1.7421 v 34.83441 c 0,0.95743 0.78132,1.74211 1.7421,1.74211 h 34.8331 c 0.96078,0 1.7421,-0.78133 1.7421,-1.74211 v -34.83441 c -0.003,-0.96077 -0.78467,-1.7421 -1.7421,-1.7421 z m 54.5183,0 c -0.96078,0 -1.74211,0.78133 -1.74211,1.7421 v 34.83441 c 0,0.95743 0.78133,1.74211 1.74211,1.74211 h 34.8344 c 0.96077,0 1.74081,-0.78133 1.74081,-1.74211 v -34.83441 c 0,-0.96077 -0.78004,-1.7421 -1.74081,-1.7421 z m -37.10371,2.08923 c 9.4087,0 17.06356,7.65486 17.06356,17.06355 0,9.40869 -7.65486,17.06355 -17.06356,17.06355 -9.40868,0 -17.06226,-7.65486 -17.06226,-17.06355 0,-9.40869 7.65358,-17.06355 17.06226,-17.06355 z m 54.52352,0 c 9.40868,0 17.06225,7.65486 17.06225,17.06355 0,9.40869 -7.65357,17.06355 -17.06225,17.06355 -9.40869,0 -17.06355,-7.65486 -17.06355,-17.06355 0,-9.40869 7.65486,-17.06355 17.06355,-17.06355 z m -188.04495,1.318 c -0.96078,0 -1.74211,0.78002 -1.74211,1.7408 v 28.7742 c 0,0.95678 0.78133,1.74211 1.74211,1.74211 h 90.10957 c 0.96078,0 1.74082,-0.78133 1.74082,-1.74211 v -28.7742 c 0,-0.96078 -0.78134,-1.7408 -1.74211,-1.7408 z m 133.52143,2.77563 c -7.15574,0 -12.97514,5.81811 -12.97514,12.97384 0,7.15573 5.8194,12.97513 12.97514,12.97513 7.15573,0 12.97514,-5.8194 12.97514,-12.97513 0,-7.15573 -5.81941,-12.97384 -12.97514,-12.97384 z m 54.52352,0 c -7.15573,0 -12.97514,5.81811 -12.97514,12.97384 0,7.15573 5.81941,12.97513 12.97514,12.97513 7.15574,0 12.97384,-5.8194 12.97384,-12.97513 0,-7.15573 -5.82212,-12.97384 -12.97384,-12.97384 z m -172.52384,4.11712 h 17.03877 c 4.88607,0 8.86063,3.97465 8.86063,8.85672 0,4.88607 -3.9739,8.86193 -8.86063,8.86193 h -17.03882 c -4.88608,0 -8.86063,-3.97518 -8.86063,-8.86193 0,-4.88207 3.97455,-8.85672 8.86063,-8.85672 z m 42.40704,0 h 17.03876 c 4.88541,0 8.86063,3.97465 8.86063,8.85672 -0.004,4.88607 -3.97856,8.86193 -8.86063,8.86193 h -17.03876 c -4.88608,0 -8.86063,-3.97518 -8.86063,-8.86193 0,-4.88207 3.97455,-8.85672 8.86063,-8.85672 z m -42.40704,4.08973 c -2.62912,0 -4.77222,2.13787 -4.77222,4.76699 0,2.63313 2.13909,4.77351 4.77222,4.77351 h 17.03877 c 2.63312,0 4.7722,-2.13973 4.7722,-4.77351 0,-2.62912 -2.14243,-4.76699 -4.7722,-4.76699 z m 42.40704,0 c -2.63245,0 -4.77221,2.13787 -4.77221,4.76699 0,2.63313 2.13909,4.77351 4.77221,4.77351 h 17.03876 c 2.62912,0 4.77221,-2.13973 4.77221,-4.77351 -0.004,-2.62912 -2.14309,-4.76699 -4.77221,-4.76699 z m -57.92815,30.66768 c -0.96078,0 -1.74211,0.7807 -1.74211,1.74081 v 6.78836 h 93.59279 v -6.78836 c 0,-0.96012 -0.78133,-1.74081 -1.7421,-1.74081 z" />
</g>
<g
   id="g42"
   transform="translate(-32.784787,-217.50827)">
</g>
<g
   id="g44"
   transform="translate(-32.784787,-217.50827)">
</g>
<g
   id="g46"
   transform="translate(-32.784787,-217.50827)">
</g>
<g
   id="g48"
   transform="translate(-32.784787,-217.50827)">
</g>
<g
   id="g50"
   transform="translate(-32.784787,-217.50827)">
</g>
<g
   id="g52"
   transform="translate(-32.784787,-217.50827)">
</g>
<g
   id="g54"
   transform="translate(-32.784787,-217.50827)">
</g>
<g
   id="g56"
   transform="translate(-32.784787,-217.50827)">
</g>
<g
   id="g58"
   transform="translate(-32.784787,-217.50827)">
</g>
<g
   id="g60"
   transform="translate(-32.784787,-217.50827)">
</g>
<g
   id="g62"
   transform="translate(-32.784787,-217.50827)">
</g>
<g
   id="g64"
   transform="translate(-32.784787,-217.50827)">
</g>
<g
   id="g66"
   transform="translate(-32.784787,-217.50827)">
</g>
<g
   id="g68"
   transform="translate(-32.784787,-217.50827)">
</g>
<g
   id="g70"
   transform="translate(-32.784787,-217.50827)">
</g>
</svg>