<?xml version="1.0" encoding="UTF-8" standalone="no"?>
<!-- Svg Vector Icons : http://www.onlinewebfonts.com/icon -->

<svg
   xmlns:dc="http://purl.org/dc/elements/1.1/"
   xmlns:cc="http://creativecommons.org/ns#"
   xmlns:rdf="http://www.w3.org/1999/02/22-rdf-syntax-ns#"
   xmlns:svg="http://www.w3.org/2000/svg"
   xmlns="http://www.w3.org/2000/svg"
   xmlns:sodipodi="http://sodipodi.sourceforge.net/DTD/sodipodi-0.dtd"
   xmlns:inkscape="http://www.inkscape.org/namespaces/inkscape"
   version="1.1"
   x="0px"
   y="0px"
   viewBox="0 0 1000 1000"
   enable-background="new 0 0 1000 1000"
   xml:space="preserve"
   id="svg70"
   sodipodi:docname="xbox320.svg"
   inkscape:version="0.92.5 (2060ec1f9f, 2020-04-08)"
   inkscape:export-filename="xbox360.png"
   inkscape:export-xdpi="23.040001"
   inkscape:export-ydpi="23.040001"><defs
   id="defs74" /><sodipodi:namedview
   pagecolor="#ffffff"
   bordercolor="#666666"
   borderopacity="1"
   objecttolerance="10"
   gridtolerance="10"
   guidetolerance="10"
   inkscape:pageopacity="0"
   inkscape:pageshadow="2"
   inkscape:window-width="1862"
   inkscape:window-height="1009"
   id="namedview72"
   showgrid="false"
   inkscape:zoom="0.236"
   inkscape:cx="522.48755"
   inkscape:cy="1099.1896"
   inkscape:window-x="58"
   inkscape:window-y="34"
   inkscape:window-maximized="1"
   inkscape:current-layer="svg70" />
<metadata
   id="metadata2"> Svg Vector Icons : http://www.onlinewebfonts.com/icon <rdf:RDF><cc:Work
     rdf:about=""><dc:format>image/svg+xml</dc:format><dc:type
       rdf:resource="http://purl.org/dc/dcmitype/StillImage" /><dc:title /></cc:Work></rdf:RDF></metadata>
<path
   inkscape:connector-curvature="0"
   id="path4"
   d="m 611.2,562.2 c -28.6,0 -51.9,23.3 -51.9,51.9 0,28.6 23.3,51.9 51.9,51.9 28.6,0 51.9,-23.3 51.9,-51.9 0.1,-28.6 -23.2,-51.9 -51.9,-51.9 z"
   style="fill:#4d4d4d" /><circle
   id="circle6"
   r="30.700001"
   cy="462.10001"
   cx="700.59998"
   style="fill:#4d4d4d" /><path
   inkscape:connector-curvature="0"
   id="path8"
   d="m 544.1,453.8 c 0,-13.9 -6.4,-26.1 -16.3,-34.4 -5.9,2.8 -15.8,7.5 -16.7,12.7 0,0 26,25.3 24.2,48.3 5.5,-7.6 8.8,-16.7 8.8,-26.6 z"
   style="fill:#4d4d4d" /><path
   inkscape:connector-curvature="0"
   id="path10"
   d="m 498.6,443.3 c -23.1,17.9 -30.4,32.8 -32.6,40.9 8.2,8.9 20,14.7 33,14.7 12.8,0 24.2,-5.4 32.4,-13.9 -2,-8 -8.9,-23.3 -32.8,-41.7 z"
   style="fill:#4d4d4d" /><path
   inkscape:connector-curvature="0"
   id="path12"
   d="m 486.2,432 c -0.9,-5.1 -10.2,-9.6 -16.2,-12.5 -9.7,8.3 -16,20.4 -16,34.2 0,9.5 3,18.2 8,25.5 -1,-22.6 24.2,-47.2 24.2,-47.2 z"
   style="fill:#4d4d4d" /><path
   inkscape:connector-curvature="0"
   id="path14"
   d="m 518.9,413.5 c -6,-3 -12.7,-4.8 -19.8,-4.8 -7.1,0 -13.8,1.8 -19.8,4.8 10.7,0.6 17.7,5.1 19.4,6.3 1.6,-1.2 9,-6 20.2,-6.3 z"
   style="fill:#4d4d4d" /><circle
   id="circle16"
   r="30.700001"
   cy="390"
   cx="772.70001"
   style="fill:#4d4d4d" /><circle
   id="circle18"
   r="30.700001"
   cy="534.09998"
   cx="772.70001"
   style="fill:#4d4d4d" /><path
   inkscape:connector-curvature="0"
   id="path20"
   d="m 220.4,390.9 c -28.6,0 -51.9,23.3 -51.9,51.9 0,28.6 23.3,51.9 51.9,51.9 28.6,0 51.9,-23.3 51.9,-51.9 0,-28.6 -23.3,-51.9 -51.9,-51.9 z"
   style="fill:#4d4d4d" /><path
   inkscape:connector-curvature="0"
   id="path22"
   d="M 670.8,289.4 C 626.3,333.9 500,329.5 500,329.5 500,329.5 373.7,334 329.2,289.4 284.7,244.9 147.8,285.5 110.5,347.3 73.2,409 -5.2,607.7 12.6,802.4 30.4,997.1 121.7,934.8 196.2,873.6 270.8,812.4 295.2,759 500,759 c 204.8,0 229.2,53.4 303.8,114.6 74.6,61.2 165.8,123.5 183.6,-71.2 C 1005.2,607.7 926.8,409 889.5,347.3 852.2,285.5 715.3,244.9 670.8,289.4 Z m 101.9,59.5 c 22.7,0 41.1,18.4 41.1,41.1 0,22.7 -18.4,41.1 -41.1,41.1 -22.7,0 -41.1,-18.4 -41.1,-41.1 0,-22.7 18.4,-41.1 41.1,-41.1 z m -261.2,36 c 0.1,0 0.7,0.1 0.8,0.1 28.3,5.4 50.8,28.1 55.7,56.7 0.5,2.8 -1.4,5.5 -4.2,6 -0.3,0.1 -0.6,0.1 -0.9,0.1 -2.5,0 -4.7,-1.8 -5.1,-4.3 -4.2,-24.3 -23.3,-43.7 -47.6,-48.3 -2.8,-0.5 -4.9,-3.3 -4.4,-6.1 0.4,-2.8 2.8,-4.6 5.7,-4.2 z m -81.2,56 c 5.4,-28.7 28.3,-51.2 56.9,-56.1 2.8,-0.5 5.5,1.4 6,4.3 0.5,2.8 -1.4,5.5 -4.3,6 -24.4,4.2 -43.8,23.3 -48.4,47.6 -0.5,2.5 -2.7,4.4 -5.2,4.4 -0.3,0 -0.6,0 -0.9,-0.1 -2.8,-0.5 -4.7,-3.1 -4.2,-5.9 l 5.1,0.9 z m -282.7,2 c 0,-40.1 32.7,-72.8 72.8,-72.8 40.1,0 72.8,32.7 72.8,72.8 0,40.1 -32.7,72.8 -72.8,72.8 -40.2,-0.1 -72.8,-32.7 -72.8,-72.8 z m 214.5,276.7 c -50.4,0 -91.4,-41 -91.4,-91.4 0,-50.4 41,-91.4 91.4,-91.4 50.4,0 91.4,41 91.4,91.4 0,50.4 -41,91.4 -91.4,91.4 z m 125.1,-197 c -0.3,0 -0.6,0 -0.9,-0.1 h -0.2 c -28.8,-5.4 -51.3,-28.4 -56.1,-57.1 -0.5,-2.8 1.4,-5.5 4.3,-6 2.8,-0.5 5.5,1.4 6,4.3 4.1,24.4 23.2,44 47.6,48.6 2.8,0.5 4.8,3.2 4.3,6 -0.4,2.5 -2.6,4.3 -5,4.3 z M 499,509.3 c -30.6,0 -55.5,-24.9 -55.5,-55.5 0,-30.6 24.9,-55.5 55.5,-55.5 30.6,0 55.5,24.9 55.5,55.5 0,30.6 -24.9,55.5 -55.5,55.5 z m 10.6,13.5 c -2.5,0 -4.7,-1.8 -5.1,-4.4 -0.5,-2.8 1.5,-5.5 4.3,-6 24.5,-4.1 44.1,-23.2 48.8,-47.6 0.5,-2.8 3.3,-5 6.1,-4.5 2.8,0.5 4.8,2.8 4.3,5.6 0,0.1 -0.2,0.9 -0.2,1 -5.4,28.6 -28.4,51.1 -57.3,55.8 -0.3,0.1 -0.6,0.1 -0.9,0.1 z m 101.6,164.1 c -40.1,0 -72.8,-32.7 -72.8,-72.8 0,-40.1 32.6,-72.8 72.8,-72.8 40.1,0 72.8,32.7 72.8,72.8 0,40.1 -32.6,72.8 -72.8,72.8 z m 89.4,-183.7 c -22.7,0 -41.1,-18.4 -41.1,-41.1 0,-22.7 18.5,-41.1 41.1,-41.1 22.7,0 41.1,18.4 41.1,41.1 0.1,22.6 -18.4,41.1 -41.1,41.1 z m 72.1,72 c -22.7,0 -41.1,-18.4 -41.1,-41.1 0,-22.7 18.5,-41.1 41.1,-41.1 22.7,0 41.1,18.4 41.1,41.1 0,22.7 -18.4,41.1 -41.1,41.1 z m 72,-72 c -22.7,0 -41.1,-18.4 -41.1,-41.1 0,-22.7 18.4,-41.1 41.1,-41.1 22.7,0 41.1,18.4 41.1,41.1 0,22.6 -18.4,41.1 -41.1,41.1 z"
   style="fill:#1a1a1a" /><circle
   id="circle24"
   r="30.700001"
   cy="462.10001"
   cx="844.70001"
   style="fill:#4d4d4d" /><path
   inkscape:connector-curvature="0"
   id="path26"
   d="m 362.1,547.2 c -44.6,0 -81,36.3 -81,81 0,44.6 36.3,81 81,81 44.6,0 81,-36.3 81,-81 0,-44.7 -36.4,-81 -81,-81 z M 336,679 v 5.8 c -13.5,-6.2 -24.3,-17.1 -30.5,-30.5 h 5.8 6.1 c 4.5,7.7 10.9,14.1 18.6,18.6 z m 0,-101.7 v 6.1 c -7.7,4.5 -14.1,10.9 -18.6,18.6 h -6.1 -5.8 c 6.2,-13.5 17.1,-24.3 30.5,-30.5 z m 52.2,107.5 v -5.8 -6.1 c 7.7,-4.5 14.1,-10.9 18.6,-18.6 h 6.1 5.8 c -6.2,13.4 -17.1,24.3 -30.5,30.5 z m 24.7,-82.7 h -6.1 c -4.5,-7.7 -10.9,-14.1 -18.6,-18.6 v -6.1 -5.8 c 13.5,6.2 24.3,17.1 30.5,30.5 z"
   style="fill:#4d4d4d" />
<g
   inkscape:groupmode="layer"
   id="layer1"
   inkscape:label="Layer 1"
   style="display:none"><circle
     id="circle28"
     r="31.9"
     cy="225.70505"
     cx="516.28772"
     style="fill:#4d4d4d" /><path
     inkscape:connector-curvature="0"
     id="path30"
     d="m 580.4877,211.90506 c 0,11.5 9.3,20.9 20.9,20.9 11.5,0 20.8,-9.3 20.8,-20.9 0,-50 -47.5,-90.6 -105.8,-90.6 -58.4,0 -105.9,40.7 -105.9,90.6 0,11.5 9.3,20.9 20.9,20.9 11.6,0 20.9,-9.3 20.9,-20.9 0,-27 28.8,-48.9 64.1,-48.9 35.3,0 64.1,21.9 64.1,48.9 z"
     style="fill:#4d4d4d" /><path
     inkscape:connector-curvature="0"
     id="path32"
     d="m 672.4877,223.00506 c 11.5,0 20.9,-9.3 20.9,-20.9 0,-82.2 -79.4,-149.100001 -177.1,-149.100001 -97.6,0 -177.1,66.900001 -177.1,149.100001 0,11.5 9.3,20.9 20.9,20.9 11.5,0 20.9,-9.3 20.9,-20.9 0,-59.2 60.7,-107.400001 135.4,-107.400001 74.6,0 135.4,48.200001 135.4,107.400001 -0.1,11.5 9.2,20.9 20.7,20.9 z"
     style="fill:#4d4d4d" /></g></svg>